<svg width="176" height="24" viewBox="0 0 176 24" fill="none" xmlns="http://www.w3.org/2000/svg">
<path d="M33.544 6.72V13.488C33.544 14.5973 33.7893 15.4187 34.28 15.952C34.7707 16.4747 35.448 16.736 36.312 16.736C37.1653 16.736 37.832 16.4693 38.312 15.936C38.792 15.4027 39.032 14.5867 39.032 13.488V6.72H40.488V13.488C40.488 15.024 40.104 16.1813 39.336 16.96C38.5787 17.728 37.56 18.112 36.28 18.112C35.0107 18.112 33.992 17.728 33.224 16.96C32.4667 16.1813 32.088 15.024 32.088 13.488V6.72H33.544ZM47.5941 9.104C48.3728 9.104 49.0661 9.28533 49.6741 9.648C50.2821 10.0107 50.7568 10.5333 51.0981 11.216C51.4501 11.8987 51.6261 12.6987 51.6261 13.616C51.6261 14.5333 51.4501 15.3333 51.0981 16.016C50.7568 16.688 50.2821 17.2053 49.6741 17.568C49.0661 17.9307 48.3728 18.112 47.5941 18.112C46.7408 18.112 46.0155 17.8987 45.4181 17.472C44.8315 17.0347 44.4261 16.464 44.2021 15.76V22.16H42.7461V9.216H44.2021V11.456C44.4261 10.752 44.8315 10.1867 45.4181 9.76C46.0155 9.32267 46.7408 9.104 47.5941 9.104ZM47.1781 10.4C46.6128 10.4 46.1008 10.5333 45.6421 10.8C45.1835 11.056 44.8261 11.4293 44.5701 11.92C44.3141 12.4107 44.1861 12.976 44.1861 13.616C44.1861 14.256 44.3141 14.8213 44.5701 15.312C44.8261 15.792 45.1835 16.1653 45.6421 16.432C46.1008 16.6987 46.6128 16.832 47.1781 16.832C48.0848 16.832 48.8048 16.5493 49.3381 15.984C49.8821 15.408 50.1541 14.6187 50.1541 13.616C50.1541 12.6133 49.8821 11.8293 49.3381 11.264C48.8048 10.688 48.0848 10.4 47.1781 10.4ZM54.9834 6.16V18H53.5274V6.16H54.9834ZM61.3083 9.104C62.1509 9.104 62.9029 9.28533 63.5643 9.648C64.2363 10.0107 64.7589 10.5333 65.1323 11.216C65.5163 11.8987 65.7083 12.6987 65.7083 13.616C65.7083 14.5333 65.5163 15.3333 65.1323 16.016C64.7589 16.688 64.2363 17.2053 63.5643 17.568C62.9029 17.9307 62.1509 18.112 61.3083 18.112C60.4656 18.112 59.7083 17.9307 59.0363 17.568C58.3749 17.2053 57.8523 16.688 57.4683 16.016C57.0843 15.3333 56.8923 14.5333 56.8923 13.616C56.8923 12.6987 57.0843 11.8987 57.4683 11.216C57.8523 10.5333 58.3749 10.0107 59.0363 9.648C59.7083 9.28533 60.4656 9.104 61.3083 9.104ZM61.3083 10.384C60.7856 10.384 60.3003 10.5013 59.8523 10.736C59.4149 10.9707 59.0576 11.3333 58.7803 11.824C58.5136 12.304 58.3803 12.9013 58.3803 13.616C58.3803 14.32 58.5136 14.9173 58.7803 15.408C59.0576 15.888 59.4149 16.2453 59.8523 16.48C60.3003 16.7147 60.7856 16.832 61.3083 16.832C61.8309 16.832 62.3109 16.7147 62.7483 16.48C63.1963 16.2453 63.5536 15.888 63.8203 15.408C64.0976 14.9173 64.2362 14.32 64.2362 13.616C64.2362 12.9013 64.0976 12.304 63.8203 11.824C63.5536 11.3333 63.1963 10.9707 62.7483 10.736C62.3109 10.5013 61.8309 10.384 61.3083 10.384ZM71.2055 9.104C72.0588 9.104 72.7788 9.31733 73.3655 9.744C73.9628 10.1707 74.3788 10.7413 74.6135 11.456V9.216H76.0695V18H74.6135V15.76C74.3788 16.4747 73.9628 17.0453 73.3655 17.472C72.7788 17.8987 72.0588 18.112 71.2055 18.112C70.4268 18.112 69.7335 17.9307 69.1255 17.568C68.5175 17.2053 68.0375 16.688 67.6855 16.016C67.3442 15.3333 67.1735 14.5333 67.1735 13.616C67.1735 12.6987 67.3442 11.8987 67.6855 11.216C68.0375 10.5333 68.5175 10.0107 69.1255 9.648C69.7335 9.28533 70.4268 9.104 71.2055 9.104ZM71.6215 10.4C70.7255 10.4 70.0055 10.688 69.4615 11.264C68.9282 11.8293 68.6615 12.6133 68.6615 13.616C68.6615 14.6187 68.9282 15.408 69.4615 15.984C70.0055 16.5493 70.7255 16.832 71.6215 16.832C72.1975 16.832 72.7095 16.6987 73.1575 16.432C73.6162 16.1653 73.9735 15.792 74.2295 15.312C74.4855 14.8213 74.6135 14.256 74.6135 13.616C74.6135 12.976 74.4855 12.4107 74.2295 11.92C73.9735 11.4293 73.6162 11.056 73.1575 10.8C72.7095 10.5333 72.1975 10.4 71.6215 10.4ZM81.9868 9.104C82.8401 9.104 83.5601 9.31733 84.1468 9.744C84.7441 10.1707 85.1601 10.7413 85.3948 11.456V6.16H86.8508V18H85.3948V15.76C85.1601 16.4747 84.7441 17.0453 84.1468 17.472C83.5601 17.8987 82.8401 18.112 81.9868 18.112C81.2081 18.112 80.5148 17.9307 79.9068 17.568C79.2988 17.2053 78.8188 16.688 78.4668 16.016C78.1254 15.3333 77.9548 14.5333 77.9548 13.616C77.9548 12.6987 78.1254 11.8987 78.4668 11.216C78.8188 10.5333 79.2988 10.0107 79.9068 9.648C80.5148 9.28533 81.2081 9.104 81.9868 9.104ZM82.4028 10.4C81.5068 10.4 80.7868 10.688 80.2428 11.264C79.7094 11.8293 79.4428 12.6133 79.4428 13.616C79.4428 14.6187 79.7094 15.408 80.2428 15.984C80.7868 16.5493 81.5068 16.832 82.4028 16.832C82.9788 16.832 83.4908 16.6987 83.9388 16.432C84.3974 16.1653 84.7548 15.792 85.0108 15.312C85.2668 14.8213 85.3948 14.256 85.3948 13.616C85.3948 12.976 85.2668 12.4107 85.0108 11.92C84.7548 11.4293 84.3974 11.056 83.9388 10.8C83.4908 10.5333 82.9788 10.4 82.4028 10.4ZM97.9691 9.104C98.7478 9.104 99.4411 9.28533 100.049 9.648C100.657 10.0107 101.132 10.5333 101.473 11.216C101.825 11.8987 102.001 12.6987 102.001 13.616C102.001 14.5333 101.825 15.3333 101.473 16.016C101.132 16.688 100.657 17.2053 100.049 17.568C99.4411 17.9307 98.7478 18.112 97.9691 18.112C97.1158 18.112 96.3905 17.8987 95.7931 17.472C95.2065 17.0347 94.8011 16.464 94.5771 15.76V22.16H93.1211V9.216H94.5771V11.456C94.8011 10.752 95.2065 10.1867 95.7931 9.76C96.3905 9.32267 97.1158 9.104 97.9691 9.104ZM97.5531 10.4C96.9878 10.4 96.4758 10.5333 96.0171 10.8C95.5585 11.056 95.2011 11.4293 94.9451 11.92C94.6891 12.4107 94.5611 12.976 94.5611 13.616C94.5611 14.256 94.6891 14.8213 94.9451 15.312C95.2011 15.792 95.5585 16.1653 96.0171 16.432C96.4758 16.6987 96.9878 16.832 97.5531 16.832C98.4598 16.832 99.1798 16.5493 99.7131 15.984C100.257 15.408 100.529 14.6187 100.529 13.616C100.529 12.6133 100.257 11.8293 99.7131 11.264C99.1798 10.688 98.4598 10.4 97.5531 10.4ZM105.358 10.992C105.646 10.384 106.068 9.91467 106.622 9.584C107.177 9.24267 107.838 9.072 108.606 9.072V10.656H108.158C107.337 10.656 106.665 10.8693 106.142 11.296C105.62 11.712 105.358 12.4053 105.358 13.376V18H103.902V9.216H105.358V10.992ZM114.027 9.104C114.87 9.104 115.622 9.28533 116.283 9.648C116.955 10.0107 117.478 10.5333 117.851 11.216C118.235 11.8987 118.427 12.6987 118.427 13.616C118.427 14.5333 118.235 15.3333 117.851 16.016C117.478 16.688 116.955 17.2053 116.283 17.568C115.622 17.9307 114.87 18.112 114.027 18.112C113.184 18.112 112.427 17.9307 111.755 17.568C111.094 17.2053 110.571 16.688 110.187 16.016C109.803 15.3333 109.611 14.5333 109.611 13.616C109.611 12.6987 109.803 11.8987 110.187 11.216C110.571 10.5333 111.094 10.0107 111.755 9.648C112.427 9.28533 113.184 9.104 114.027 9.104ZM114.027 10.384C113.504 10.384 113.019 10.5013 112.571 10.736C112.134 10.9707 111.776 11.3333 111.499 11.824C111.232 12.304 111.099 12.9013 111.099 13.616C111.099 14.32 111.232 14.9173 111.499 15.408C111.776 15.888 112.134 16.2453 112.571 16.48C113.019 16.7147 113.504 16.832 114.027 16.832C114.55 16.832 115.03 16.7147 115.467 16.48C115.915 16.2453 116.272 15.888 116.539 15.408C116.816 14.9173 116.955 14.32 116.955 13.616C116.955 12.9013 116.816 12.304 116.539 11.824C116.272 11.3333 115.915 10.9707 115.467 10.736C115.03 10.5013 114.55 10.384 114.027 10.384ZM121.156 7.536C120.858 7.536 120.612 7.456 120.42 7.296C120.239 7.12533 120.148 6.90667 120.148 6.64C120.148 6.37333 120.239 6.16 120.42 6C120.612 5.82933 120.858 5.744 121.156 5.744C121.444 5.744 121.679 5.82933 121.86 6C122.042 6.16 122.132 6.37333 122.132 6.64C122.132 6.90667 122.042 7.12533 121.86 7.296C121.679 7.456 121.444 7.536 121.156 7.536ZM118.708 20.88H119.316C119.7 20.88 119.978 20.7947 120.148 20.624C120.33 20.4533 120.42 20.16 120.42 19.744V9.216H121.892V19.792C121.892 21.3707 121.092 22.16 119.492 22.16H118.708V20.88ZM132.295 13.12C132.295 13.4293 132.274 13.696 132.231 13.92H125.207C125.239 14.9227 125.522 15.6747 126.055 16.176C126.599 16.6773 127.26 16.928 128.039 16.928C128.743 16.928 129.33 16.752 129.799 16.4C130.279 16.0373 130.572 15.5573 130.679 14.96H132.231C132.124 15.568 131.884 16.112 131.511 16.592C131.148 17.072 130.674 17.4453 130.087 17.712C129.5 17.9787 128.839 18.112 128.103 18.112C127.26 18.112 126.514 17.9307 125.863 17.568C125.212 17.2053 124.7 16.688 124.327 16.016C123.964 15.3333 123.783 14.5333 123.783 13.616C123.783 12.6987 123.964 11.8987 124.327 11.216C124.7 10.5333 125.212 10.0107 125.863 9.648C126.514 9.28533 127.26 9.104 128.103 9.104C128.956 9.104 129.698 9.28533 130.327 9.648C130.967 10.0107 131.452 10.496 131.783 11.104C132.124 11.712 132.295 12.384 132.295 13.12ZM130.823 13.216C130.855 12.5653 130.748 12.0213 130.503 11.584C130.258 11.1467 129.922 10.8213 129.495 10.608C129.068 10.3947 128.604 10.288 128.103 10.288C127.303 10.288 126.631 10.5387 126.087 11.04C125.543 11.5307 125.25 12.256 125.207 13.216H130.823ZM138.087 9.104C139.207 9.104 140.135 9.40267 140.871 10C141.607 10.5973 142.061 11.3973 142.231 12.4H140.695C140.589 11.7707 140.295 11.28 139.815 10.928C139.346 10.5653 138.759 10.384 138.055 10.384C137.543 10.384 137.074 10.5013 136.647 10.736C136.231 10.9707 135.895 11.3333 135.639 11.824C135.383 12.304 135.255 12.9013 135.255 13.616C135.255 14.3307 135.383 14.9333 135.639 15.424C135.895 15.904 136.231 16.2613 136.647 16.496C137.074 16.7307 137.543 16.848 138.055 16.848C138.759 16.848 139.346 16.6667 139.815 16.304C140.295 15.9413 140.589 15.4453 140.695 14.816H142.231C142.061 15.8293 141.607 16.6347 140.871 17.232C140.135 17.8187 139.207 18.112 138.087 18.112C137.245 18.112 136.498 17.9307 135.847 17.568C135.197 17.2053 134.685 16.688 134.311 16.016C133.949 15.3333 133.767 14.5333 133.767 13.616C133.767 12.6987 133.949 11.8987 134.311 11.216C134.685 10.5333 135.197 10.0107 135.847 9.648C136.498 9.28533 137.245 9.104 138.087 9.104ZM148.329 16.72V18H147.241C146.345 18 145.673 17.7867 145.225 17.36C144.787 16.9333 144.569 16.2187 144.569 15.216V10.48H143.257V9.216H144.569V7.024H146.041V9.216H148.313V10.48H146.041V15.248C146.041 15.8133 146.142 16.2027 146.345 16.416C146.558 16.6187 146.921 16.72 147.433 16.72H148.329ZM157.947 7.136C157.168 7.12533 156.624 7.25867 156.315 7.536C156.016 7.81333 155.867 8.29333 155.867 8.976V9.216H157.947V10.496H155.867V18H154.411V10.496H153.147V9.216H154.411V8.864C154.411 6.76267 155.589 5.76 157.947 5.856V7.136ZM159.271 6.64C159.271 6.37333 159.362 6.16 159.543 6C159.725 5.82933 159.965 5.744 160.263 5.744C160.562 5.744 160.802 5.82933 160.983 6C161.165 6.16 161.255 6.37333 161.255 6.64C161.255 6.90667 161.165 7.12533 160.983 7.296C160.802 7.456 160.562 7.536 160.263 7.536C159.965 7.536 159.725 7.456 159.543 7.296C159.362 7.12533 159.271 6.90667 159.271 6.64ZM160.983 9.216V18H159.527V9.216H160.983ZM164.78 6.16V18H163.324V6.16H164.78ZM175.201 13.12C175.201 13.4293 175.18 13.696 175.137 13.92H168.113C168.145 14.9227 168.428 15.6747 168.961 16.176C169.505 16.6773 170.166 16.928 170.945 16.928C171.649 16.928 172.236 16.752 172.705 16.4C173.185 16.0373 173.478 15.5573 173.585 14.96H175.137C175.03 15.568 174.79 16.112 174.417 16.592C174.054 17.072 173.58 17.4453 172.993 17.712C172.406 17.9787 171.745 18.112 171.009 18.112C170.166 18.112 169.42 17.9307 168.769 17.568C168.118 17.2053 167.606 16.688 167.233 16.016C166.87 15.3333 166.689 14.5333 166.689 13.616C166.689 12.6987 166.87 11.8987 167.233 11.216C167.606 10.5333 168.118 10.0107 168.769 9.648C169.42 9.28533 170.166 9.104 171.009 9.104C171.862 9.104 172.604 9.28533 173.233 9.648C173.873 10.0107 174.358 10.496 174.689 11.104C175.03 11.712 175.201 12.384 175.201 13.12ZM173.729 13.216C173.761 12.5653 173.654 12.0213 173.409 11.584C173.164 11.1467 172.828 10.8213 172.401 10.608C171.974 10.3947 171.51 10.288 171.009 10.288C170.209 10.288 169.537 10.5387 168.993 11.04C168.449 11.5307 168.156 12.256 168.113 13.216H173.729Z" fill="#009444"/>
<path d="M12.71 11.29C12.5231 11.1068 12.2718 11.0042 12.01 11.0042C11.7482 11.0042 11.4969 11.1068 11.31 11.29L8.31 14.19C8.20389 14.2776 8.11699 14.3861 8.05473 14.5088C7.99247 14.6314 7.95619 14.7656 7.94816 14.903C7.94013 15.0403 7.96053 15.1778 8.00807 15.3069C8.05561 15.436 8.12928 15.5539 8.22447 15.6532C8.31965 15.7526 8.43431 15.8312 8.56127 15.8842C8.68822 15.9371 8.82474 15.9634 8.9623 15.9612C9.09985 15.959 9.23548 15.9285 9.36069 15.8715C9.4859 15.8145 9.59801 15.7323 9.69 15.63L11 14.36V20C11 20.2652 11.1054 20.5196 11.2929 20.7071C11.4804 20.8947 11.7348 21 12 21C12.2652 21 12.5196 20.8947 12.7071 20.7071C12.8946 20.5196 13 20.2652 13 20V14.41L14.29 15.71C14.383 15.8037 14.4936 15.8781 14.6154 15.9289C14.7373 15.9797 14.868 16.0058 15 16.0058C15.132 16.0058 15.2627 15.9797 15.3846 15.9289C15.5064 15.8781 15.617 15.8037 15.71 15.71C15.8037 15.617 15.8781 15.5064 15.9289 15.3846C15.9797 15.2627 16.0058 15.132 16.0058 15C16.0058 14.868 15.9797 14.7373 15.9289 14.6154C15.8781 14.4936 15.8037 14.383 15.71 14.29L12.71 11.29Z" fill="#009444"/>
<path d="M17.67 6.99998C17.262 5.82103 16.4966 4.7986 15.4803 4.07494C14.4641 3.35129 13.2476 2.9624 12 2.9624C10.7524 2.9624 9.5359 3.35129 8.51967 4.07494C7.50343 4.7986 6.73804 5.82103 6.33 6.99998C5.43155 7.12032 4.58272 7.48263 3.8743 8.04817C3.16588 8.61371 2.62454 9.3612 2.30817 10.2107C1.9918 11.0601 1.91231 11.9796 2.07821 12.8708C2.24411 13.762 2.64915 14.5913 3.25 15.27C3.32258 15.3978 3.42245 15.5081 3.54251 15.5929C3.66257 15.6778 3.79985 15.7351 3.94459 15.7608C4.08933 15.7866 4.23796 15.7801 4.3799 15.7418C4.52185 15.7035 4.65361 15.6345 4.7658 15.5395C4.878 15.4445 4.96787 15.3259 5.02902 15.1922C5.09017 15.0585 5.12109 14.913 5.11958 14.766C5.11807 14.619 5.08417 14.4742 5.02029 14.3417C4.95641 14.2093 4.86412 14.0927 4.75 14C4.36312 13.5674 4.10999 13.032 4.02129 12.4585C3.93259 11.885 4.01213 11.2981 4.25028 10.7689C4.48842 10.2396 4.87494 9.79087 5.36299 9.47691C5.85105 9.16295 6.41969 8.99728 7 8.99998H7.1C7.33395 9.0047 7.56214 8.92723 7.74486 8.78105C7.92758 8.63488 8.05325 8.42926 8.1 8.19998C8.28361 7.29575 8.77419 6.4828 9.4886 5.89888C10.203 5.31496 11.0973 4.99597 12.02 4.99597C12.9427 4.99597 13.837 5.31496 14.5514 5.89888C15.2658 6.4828 15.7564 7.29575 15.94 8.19998C15.9868 8.42926 16.1124 8.63488 16.2951 8.78105C16.4779 8.92723 16.7061 9.0047 16.94 8.99998H17C17.5803 8.99728 18.149 9.16295 18.637 9.47691C19.1251 9.79087 19.5116 10.2396 19.7497 10.7689C19.9879 11.2981 20.0674 11.885 19.9787 12.4585C19.89 13.032 19.6369 13.5674 19.25 14C19.1619 14.0988 19.0943 14.214 19.0511 14.3392C19.0079 14.4643 18.99 14.5967 18.9984 14.7288C19.0067 14.8609 19.0412 14.99 19.0999 15.1086C19.1585 15.2273 19.2401 15.3331 19.34 15.42C19.5223 15.5808 19.7569 15.6696 20 15.67C20.142 15.6698 20.2823 15.6394 20.4116 15.5808C20.5409 15.5221 20.6563 15.4366 20.75 15.33C21.3675 14.6524 21.7869 13.8181 21.9622 12.9183C22.1376 12.0185 22.0622 11.0878 21.7442 10.228C21.4263 9.3681 20.8781 8.61221 20.1596 8.04291C19.441 7.47362 18.5798 7.11282 17.67 6.99998Z" fill="#009444"/>
</svg>
